<svg width="20" height="21" viewBox="0 0 20 21" fill="none" xmlns="http://www.w3.org/2000/svg">
<path fill-rule="evenodd" clip-rule="evenodd" d="M2 10.9875C2 8.86582 2.84285 6.83099 4.34315 5.33069C5.84344 3.8304 7.87827 2.98755 10 2.98755C12.1217 2.98755 14.1566 3.8304 15.6569 5.33069C17.1571 6.83099 18 8.86582 18 10.9875C18 13.1093 17.1571 15.1441 15.6569 16.6444C14.1566 18.1447 12.1217 18.9875 10 18.9875C7.87827 18.9875 5.84344 18.1447 4.34315 16.6444C2.84285 15.1441 2 13.1093 2 10.9875ZM10 0.987549C4.477 0.987549 0 5.46455 0 10.9875C0 16.5105 4.477 20.9875 10 20.9875C15.523 20.9875 20 16.5105 20 10.9875C20 5.46455 15.523 0.987549 10 0.987549ZM11 4.98755C11 4.72233 10.8946 4.46798 10.7071 4.28044C10.5196 4.09291 10.2652 3.98755 10 3.98755C9.73478 3.98755 9.48043 4.09291 9.29289 4.28044C9.10536 4.46798 9 4.72233 9 4.98755V10.9875C9.00006 11.2527 9.10545 11.5071 9.293 11.6945L12.293 14.6945C12.4816 14.8767 12.7342 14.9775 12.9964 14.9752C13.2586 14.9729 13.5094 14.8678 13.6948 14.6824C13.8802 14.497 13.9854 14.2461 13.9877 13.9839C13.99 13.7218 13.8892 13.4692 13.707 13.2805L11 10.5735V4.98755Z" fill="#515151"/>
</svg>
