<svg width="16" height="16" viewBox="0 0 16 16" fill="none" xmlns="http://www.w3.org/2000/svg">
<circle cx="8" cy="8" r="8" fill="#3D3D3D"/>
<path d="M8.15696 9.33061C6.58724 9.33061 5.86132 9.74257 4.70354 10.9004C3.29079 12.3131 2.19197 11.6852 2.03497 10.7434C1.95335 10.2537 1.814 5.187 4.23261 4.15047C5.33144 3.67955 6.58722 4.46442 8.15696 4.46442" stroke="white" stroke-width="0.5"/>
<path d="M7.84298 9.33061C9.4127 9.33061 10.1386 9.74257 11.2964 10.9004C12.7091 12.3131 13.808 11.6852 13.965 10.7434C14.0466 10.2537 14.1859 5.187 11.7673 4.15047C10.6685 3.67955 9.41272 4.46442 7.84298 4.46442" stroke="white" stroke-width="0.5"/>
<circle cx="10.9826" cy="5.72018" r="0.627896" fill="white"/>
<circle cx="9.72671" cy="6.97592" r="0.627896" fill="white"/>
<circle cx="12.2382" cy="6.97592" r="0.627896" fill="white"/>
<circle cx="10.9826" cy="8.23178" r="0.627896" fill="white"/>
<path fill-rule="evenodd" clip-rule="evenodd" d="M5.01748 5.09229C4.49731 5.09229 4.07563 5.51396 4.07563 6.03413C3.55547 6.03413 3.13379 6.45581 3.13379 6.97597C3.13379 7.49614 3.55547 7.91782 4.07563 7.91782C4.07563 8.43798 4.49731 8.85966 5.01748 8.85966C5.53764 8.85966 5.95932 8.43798 5.95932 7.91782C6.47949 7.91782 6.90116 7.49614 6.90116 6.97597C6.90116 6.45581 6.47949 6.03413 5.95932 6.03413C5.95932 5.51396 5.53764 5.09229 5.01748 5.09229ZM5.01747 5.72013C4.84409 5.72013 4.70353 5.86069 4.70353 6.03408V6.66197H4.07563C3.90224 6.66197 3.76168 6.80253 3.76168 6.97592C3.76168 7.14931 3.90224 7.28987 4.07563 7.28987H4.70353V7.91776C4.70353 8.09115 4.84409 8.23171 5.01747 8.23171C5.19086 8.23171 5.33142 8.09115 5.33142 7.91776V7.28987H5.95932C6.13271 7.28987 6.27327 7.14931 6.27327 6.97592C6.27327 6.80253 6.13271 6.66197 5.95932 6.66197H5.33142V6.03408C5.33142 5.86069 5.19086 5.72013 5.01747 5.72013Z" fill="white"/>
</svg>
