<svg width="28" height="26" viewBox="0 0 28 26" fill="none" xmlns="http://www.w3.org/2000/svg">
<path fill-rule="evenodd" clip-rule="evenodd" d="M27.7666 20.4307L27.7678 20.4342C28.1528 20.9358 28.3371 22.6029 25.6969 22.3066C24.6128 22.2007 23.5472 21.9536 22.5271 21.5716C21.7298 21.2659 20.9672 20.8764 20.2521 20.4097C19.1924 20.8361 18.07 21.086 16.9294 21.1493C16.1155 22.2415 15.0575 23.1282 13.8399 23.7387C12.6222 24.3492 11.2787 24.6666 9.9166 24.6655C8.99755 24.6663 8.08411 24.5222 7.20994 24.2385C6.6966 24.536 6.11327 24.8265 5.46927 25.0703C4.1626 25.5649 3.07877 25.7504 2.29944 25.8053C1.7161 25.8484 1.30427 25.8181 1.10127 25.7948C0.655603 25.7434 0.256603 25.4891 0.0839368 25.0621C0.00978686 24.8774 -0.0158467 24.6767 0.00947561 24.4792C0.0347979 24.2818 0.110233 24.0941 0.228603 23.934C0.522603 23.5315 0.79327 23.1104 1.04994 22.6834C1.54927 21.8504 2.03927 20.9522 2.16294 19.9745C1.61584 18.9301 1.28547 17.786 1.19167 16.6107C1.09786 15.4354 1.24257 14.2533 1.61709 13.1354C1.9916 12.0174 2.58821 10.9867 3.37108 10.1051C4.15394 9.22352 5.10692 8.50922 6.17277 8.00512C6.54594 6.59531 7.20873 5.27869 8.1189 4.13917C9.02907 2.99966 10.1667 2.06224 11.4592 1.38666C12.7517 0.711084 14.1708 0.31216 15.626 0.215316C17.0812 0.118471 18.5406 0.325829 19.9113 0.824175C21.2819 1.32252 22.5337 2.10093 23.5868 3.10978C24.64 4.11863 25.4714 5.33581 26.0281 6.68375C26.5849 8.03168 26.8547 9.4808 26.8203 10.9388C26.786 12.3967 26.4483 13.8315 25.8288 15.1518C25.6071 17.163 26.6186 18.8558 27.7654 20.4307H27.7666ZM8.1666 10.6662C8.16724 9.43561 8.44598 8.22112 8.98199 7.11344C9.518 6.00576 10.2974 5.03352 11.262 4.26939C12.2266 3.50526 13.3514 2.96898 14.5524 2.70065C15.7534 2.43231 16.9995 2.43884 18.1976 2.71976C19.3957 3.00068 20.5149 3.54871 21.4714 4.32292C22.4279 5.09712 23.1971 6.07748 23.7214 7.19072C24.2458 8.30396 24.5118 9.52131 24.4995 10.7518C24.4873 11.9823 24.1971 13.1941 23.6506 14.2966C23.5946 14.4093 23.5572 14.5302 23.5398 14.6548C23.2843 16.4922 23.7148 18.1675 24.5956 19.7762C23.3214 19.4662 22.1205 18.9093 21.0606 18.1371C20.8903 18.0136 20.6899 17.9385 20.4804 17.9196C20.2709 17.9007 20.0602 17.9388 19.8706 18.0298C18.6254 18.6282 17.2488 18.9009 15.8695 18.8224C14.4903 18.744 13.1535 18.317 11.9842 17.5813C10.8149 16.8456 9.8513 15.8253 9.18365 14.616C8.51599 13.4066 8.16607 12.0476 8.1666 10.6662ZM5.83794 10.9625C5.90356 13.2834 6.73632 15.5171 8.20607 17.3146C9.67582 19.1121 11.6997 20.372 13.9614 20.8973C12.8189 21.8277 11.39 22.3346 9.9166 22.3323C9.06494 22.3323 8.25644 22.1678 7.51677 21.8691C7.34362 21.7991 7.15618 21.7716 6.97021 21.7891C6.78425 21.8065 6.60519 21.8684 6.4481 21.9694C5.93594 22.2996 5.3281 22.6286 4.6421 22.8887C4.23645 23.0434 3.82146 23.1724 3.3996 23.2749C3.7881 22.5667 4.18127 21.7233 4.36094 20.93C4.45077 20.5368 4.50094 20.1554 4.52194 19.7972C4.53617 19.5669 4.48177 19.3375 4.3656 19.1381C3.79639 18.1598 3.49762 17.0477 3.49994 15.9159C3.49994 13.921 4.40994 12.1396 5.83794 10.9625Z" fill="#36B972"/>
</svg>
