<svg width="29" height="29" viewBox="0 0 29 29" fill="none" xmlns="http://www.w3.org/2000/svg">
<path fill-rule="evenodd" clip-rule="evenodd" d="M0.585573 1.58644C0.960629 1.21148 1.46924 1.00083 1.99957 1.00083C2.5299 1.00083 3.03852 1.21148 3.41357 1.58644L13.9996 12.1729L24.5856 1.58644C24.7701 1.39541 24.9908 1.24303 25.2348 1.13821C25.4788 1.03339 25.7412 0.978213 26.0068 0.975906C26.2723 0.973598 26.5357 1.0242 26.7815 1.12477C27.0273 1.22534 27.2506 1.37385 27.4384 1.56164C27.6261 1.74944 27.7747 1.97275 27.8752 2.21856C27.9758 2.46436 28.0264 2.72774 28.0241 2.99331C28.0218 3.25888 27.9666 3.52133 27.8618 3.76535C27.757 4.00937 27.6046 4.23007 27.4136 4.41457L16.8276 15.0011L27.4136 25.5876C27.7779 25.9648 27.9795 26.47 27.9749 26.9945C27.9704 27.5189 27.76 28.0205 27.3892 28.3914C27.0184 28.7622 26.5168 28.9726 25.9924 28.9771C25.468 28.9817 24.9628 28.7801 24.5856 28.4157L13.9996 17.8292L3.41357 28.4157C3.03637 28.7801 2.53116 28.9817 2.00677 28.9771C1.48238 28.9726 0.980752 28.7622 0.609936 28.3914C0.23912 28.0205 0.0287811 27.5189 0.0242243 26.9945C0.0196674 26.47 0.221257 25.9648 0.585573 25.5876L11.1716 15.0011L0.585573 4.41457C0.210631 4.0395 0 3.53086 0 3.0005C0 2.47015 0.210631 1.96151 0.585573 1.58644Z" fill="white"/>
</svg>
