<svg width="18" height="24" viewBox="0 0 18 24" fill="none" xmlns="http://www.w3.org/2000/svg">
<path fill-rule="evenodd" clip-rule="evenodd" d="M8.17484 0.675202C8.39362 0.456486 8.69032 0.333618 8.99968 0.333618C9.30903 0.333618 9.60573 0.456486 9.82451 0.675202L14.4912 5.34187C14.7037 5.56191 14.8213 5.85661 14.8186 6.1625C14.816 6.4684 14.6933 6.76101 14.477 6.97732C14.2607 7.19363 13.968 7.31633 13.6621 7.31899C13.3562 7.32165 13.0615 7.20405 12.8415 6.99154L10.1663 4.31637V15.5C10.1663 15.8095 10.0434 16.1062 9.82463 16.325C9.60584 16.5438 9.3091 16.6667 8.99968 16.6667C8.69026 16.6667 8.39351 16.5438 8.17472 16.325C7.95593 16.1062 7.83301 15.8095 7.83301 15.5V4.31637L5.15784 6.99154C4.93781 7.20405 4.6431 7.32165 4.33721 7.31899C4.03131 7.31633 3.7387 7.19363 3.52239 6.97732C3.30608 6.76101 3.18338 6.4684 3.18072 6.1625C3.17806 5.85661 3.29566 5.56191 3.50818 5.34187L8.17484 0.675202ZM0.833008 13.1667C0.833008 12.2384 1.20176 11.3482 1.85813 10.6918C2.51451 10.0355 3.40475 9.6667 4.33301 9.6667H5.49968C5.80909 9.6667 6.10584 9.78962 6.32463 10.0084C6.54343 10.2272 6.66634 10.524 6.66634 10.8334C6.66634 11.1428 6.54343 11.4395 6.32463 11.6583C6.10584 11.8771 5.80909 12 5.49968 12H4.33301C4.02359 12 3.72684 12.123 3.50805 12.3417C3.28926 12.5605 3.16634 12.8573 3.16634 13.1667V20.1667C3.16634 20.4761 3.28926 20.7729 3.50805 20.9917C3.72684 21.2105 4.02359 21.3334 4.33301 21.3334H13.6663C13.9758 21.3334 14.2725 21.2105 14.4913 20.9917C14.7101 20.7729 14.833 20.4761 14.833 20.1667V13.1667C14.833 12.8573 14.7101 12.5605 14.4913 12.3417C14.2725 12.123 13.9758 12 13.6663 12H12.4997C12.1903 12 11.8935 11.8771 11.6747 11.6583C11.4559 11.4395 11.333 11.1428 11.333 10.8334C11.333 10.524 11.4559 10.2272 11.6747 10.0084C11.8935 9.78962 12.1903 9.6667 12.4997 9.6667H13.6663C14.5946 9.6667 15.4848 10.0355 16.1412 10.6918C16.7976 11.3482 17.1663 12.2384 17.1663 13.1667V20.1667C17.1663 21.095 16.7976 21.9852 16.1412 22.6416C15.4848 23.298 14.5946 23.6667 13.6663 23.6667H4.33301C3.40475 23.6667 2.51451 23.298 1.85813 22.6416C1.20176 21.9852 0.833008 21.095 0.833008 20.1667V13.1667Z" fill="#36B972"/>
</svg>
