<svg width="18" height="19" viewBox="0 0 18 19" fill="none" xmlns="http://www.w3.org/2000/svg">
<path fill-rule="evenodd" clip-rule="evenodd" d="M1 0.987549C1.26522 0.987549 1.51957 1.09291 1.70711 1.28044C1.89464 1.46798 2 1.72233 2 1.98755V2.98755H4V1.98755C4 1.72233 4.10536 1.46798 4.29289 1.28044C4.48043 1.09291 4.73478 0.987549 5 0.987549C5.26522 0.987549 5.51957 1.09291 5.70711 1.28044C5.89464 1.46798 6 1.72233 6 1.98755V2.98755H8V1.98755C8 1.72233 8.10536 1.46798 8.29289 1.28044C8.48043 1.09291 8.73478 0.987549 9 0.987549C9.26522 0.987549 9.51957 1.09291 9.70711 1.28044C9.89464 1.46798 10 1.72233 10 1.98755V2.98755H12V1.98755C12 1.72233 12.1054 1.46798 12.2929 1.28044C12.4804 1.09291 12.7348 0.987549 13 0.987549C13.2652 0.987549 13.5196 1.09291 13.7071 1.28044C13.8946 1.46798 14 1.72233 14 1.98755V2.98755H16V1.98755C16 1.72233 16.1054 1.46798 16.2929 1.28044C16.4804 1.09291 16.7348 0.987549 17 0.987549C17.2652 0.987549 17.5196 1.09291 17.7071 1.28044C17.8946 1.46798 18 1.72233 18 1.98755V15.9875C18 16.7832 17.6839 17.5463 17.1213 18.1089C16.5587 18.6715 15.7956 18.9875 15 18.9875H3C2.20435 18.9875 1.44129 18.6715 0.87868 18.1089C0.316071 17.5463 0 16.7832 0 15.9875V1.98755C0 1.72233 0.105357 1.46798 0.292893 1.28044C0.48043 1.09291 0.734784 0.987549 1 0.987549ZM16 4.98755H2V15.9875C2 16.2528 2.10536 16.5071 2.29289 16.6947C2.48043 16.8822 2.73478 16.9875 3 16.9875H15C15.2652 16.9875 15.5196 16.8822 15.7071 16.6947C15.8946 16.5071 16 16.2528 16 15.9875V4.98755ZM10 7.98755C10 8.25277 9.89464 8.50712 9.70711 8.69466C9.51957 8.88219 9.26522 8.98755 9 8.98755C8.73478 8.98755 8.48043 8.88219 8.29289 8.69466C8.10536 8.50712 8 8.25277 8 7.98755C8 7.72233 8.10536 7.46798 8.29289 7.28044C8.48043 7.09291 8.73478 6.98755 9 6.98755C9.26522 6.98755 9.51957 7.09291 9.70711 7.28044C9.89464 7.46798 10 7.72233 10 7.98755ZM13 8.98755C13.2652 8.98755 13.5196 8.88219 13.7071 8.69466C13.8946 8.50712 14 8.25277 14 7.98755C14 7.72233 13.8946 7.46798 13.7071 7.28044C13.5196 7.09291 13.2652 6.98755 13 6.98755C12.7348 6.98755 12.4804 7.09291 12.2929 7.28044C12.1054 7.46798 12 7.72233 12 7.98755C12 8.25277 12.1054 8.50712 12.2929 8.69466C12.4804 8.88219 12.7348 8.98755 13 8.98755ZM6 10.9875C6 11.2528 5.89464 11.5071 5.70711 11.6947C5.51957 11.8822 5.26522 11.9875 5 11.9875C4.73478 11.9875 4.48043 11.8822 4.29289 11.6947C4.10536 11.5071 4 11.2528 4 10.9875C4 10.7223 4.10536 10.468 4.29289 10.2804C4.48043 10.0929 4.73478 9.98755 5 9.98755C5.26522 9.98755 5.51957 10.0929 5.70711 10.2804C5.89464 10.468 6 10.7223 6 10.9875ZM9 11.9875C9.26522 11.9875 9.51957 11.8822 9.70711 11.6947C9.89464 11.5071 10 11.2528 10 10.9875C10 10.7223 9.89464 10.468 9.70711 10.2804C9.51957 10.0929 9.26522 9.98755 9 9.98755C8.73478 9.98755 8.48043 10.0929 8.29289 10.2804C8.10536 10.468 8 10.7223 8 10.9875C8 11.2528 8.10536 11.5071 8.29289 11.6947C8.48043 11.8822 8.73478 11.9875 9 11.9875ZM14 10.9875C14 11.2528 13.8946 11.5071 13.7071 11.6947C13.5196 11.8822 13.2652 11.9875 13 11.9875C12.7348 11.9875 12.4804 11.8822 12.2929 11.6947C12.1054 11.5071 12 11.2528 12 10.9875C12 10.7223 12.1054 10.468 12.2929 10.2804C12.4804 10.0929 12.7348 9.98755 13 9.98755C13.2652 9.98755 13.5196 10.0929 13.7071 10.2804C13.8946 10.468 14 10.7223 14 10.9875ZM5 14.9875C5.26522 14.9875 5.51957 14.8822 5.70711 14.6947C5.89464 14.5071 6 14.2528 6 13.9875C6 13.7223 5.89464 13.468 5.70711 13.2804C5.51957 13.0929 5.26522 12.9875 5 12.9875C4.73478 12.9875 4.48043 13.0929 4.29289 13.2804C4.10536 13.468 4 13.7223 4 13.9875C4 14.2528 4.10536 14.5071 4.29289 14.6947C4.48043 14.8822 4.73478 14.9875 5 14.9875ZM10 13.9875C10 14.2528 9.89464 14.5071 9.70711 14.6947C9.51957 14.8822 9.26522 14.9875 9 14.9875C8.73478 14.9875 8.48043 14.8822 8.29289 14.6947C8.10536 14.5071 8 14.2528 8 13.9875C8 13.7223 8.10536 13.468 8.29289 13.2804C8.48043 13.0929 8.73478 12.9875 9 12.9875C9.26522 12.9875 9.51957 13.0929 9.70711 13.2804C9.89464 13.468 10 13.7223 10 13.9875ZM13 14.9875C13.2652 14.9875 13.5196 14.8822 13.7071 14.6947C13.8946 14.5071 14 14.2528 14 13.9875C14 13.7223 13.8946 13.468 13.7071 13.2804C13.5196 13.0929 13.2652 12.9875 13 12.9875C12.7348 12.9875 12.4804 13.0929 12.2929 13.2804C12.1054 13.468 12 13.7223 12 13.9875C12 14.2528 12.1054 14.5071 12.2929 14.6947C12.4804 14.8822 12.7348 14.9875 13 14.9875Z" fill="#515151"/>
</svg>
