<svg width="20" height="19" viewBox="0 0 20 19" fill="none" xmlns="http://www.w3.org/2000/svg">
<path fill-rule="evenodd" clip-rule="evenodd" d="M8.85301 1.13103C9.28801 0.128034 10.712 0.128034 11.147 1.13103L13.127 5.69703L18.081 6.16903C19.169 6.27203 19.609 7.62603 18.789 8.35003L15.059 11.644L16.141 16.501C16.379 17.569 15.227 18.405 14.285 17.849L10 15.32L5.71501 17.85C4.77301 18.406 3.62101 17.57 3.85901 16.502L4.94101 11.645L1.21101 8.35103C0.391008 7.62703 0.831008 6.27303 1.92001 6.17003L6.87301 5.69803L8.85301 1.13203V1.13103ZM10 3.51403L8.47301 7.03403L8.23901 7.57603L7.65101 7.63203L3.83101 7.99603L6.70701 10.536L7.15001 10.926L7.02201 11.502L6.18701 15.248L9.49201 13.297L10 12.997L10.508 13.297L13.813 15.247L12.978 11.502L12.85 10.926L13.293 10.536L16.169 7.99603L12.349 7.63203L11.761 7.57603L11.527 7.03403L10 3.51403Z" fill="#515151"/>
</svg>
